<svg xmlns="http://www.w3.org/2000/svg" xmlns:xlink="http://www.w3.org/1999/xlink" contentStyleType="text/css" data-diagram-type="CLASS" height="1212px" preserveAspectRatio="none" style="width:2569px;height:1212px;background:#FFFFFF;" version="1.1" viewBox="0 0 2569 1212" width="2569px" zoomAndPan="magnify"><defs/><g><!--cluster Clientes--><g class="cluster" data-entity="Clientes" data-source-line="7" data-uid="ent0002" id="cluster_Clientes"><path d="M391.17,243 L456.0245,243 A3.75,3.75 0 0 1 458.5245,245.5 L465.5245,265.2969 L1041.83,265.2969 A2.5,2.5 0 0 1 1044.33,267.7969 L1044.33,421.5 A2.5,2.5 0 0 1 1041.83,424 L391.17,424 A2.5,2.5 0 0 1 388.67,421.5 L388.67,245.5 A2.5,2.5 0 0 1 391.17,243" fill="none" style="stroke:#000000;stroke-width:1.5;"/><line style="stroke:#000000;stroke-width:1.5;" x1="388.67" x2="465.5245" y1="265.2969" y2="265.2969"/><text fill="#000000" font-family="sans-serif" font-size="14" font-weight="bold" lengthAdjust="spacing" textLength="63.8545" x="392.67" y="257.9951">Clientes</text></g><!--cluster Vendas--><g class="cluster" data-entity="Vendas" data-source-line="20" data-uid="ent0007" id="cluster_Vendas"><path d="M718.27,448 L777.3686,448 A3.75,3.75 0 0 1 779.8686,450.5 L786.8686,470.2969 L1776.66,470.2969 A2.5,2.5 0 0 1 1779.16,472.7969 L1779.16,744.5 A2.5,2.5 0 0 1 1776.66,747 L718.27,747 A2.5,2.5 0 0 1 715.77,744.5 L715.77,450.5 A2.5,2.5 0 0 1 718.27,448" fill="none" style="stroke:#000000;stroke-width:1.5;"/><line style="stroke:#000000;stroke-width:1.5;" x1="715.77" x2="786.8686" y1="470.2969" y2="470.2969"/><text fill="#000000" font-family="sans-serif" font-size="14" font-weight="bold" lengthAdjust="spacing" textLength="58.0986" x="719.77" y="462.9951">Vendas</text></g><!--cluster Pagamentos--><g class="cluster" data-entity="Pagamentos" data-source-line="49" data-uid="ent0016" id="cluster_Pagamentos"><path d="M1134.6,6 L1233.4701,6 A3.75,3.75 0 0 1 1235.9701,8.5 L1242.9701,28.2969 L1790.92,28.2969 A2.5,2.5 0 0 1 1793.42,30.7969 L1793.42,184.5 A2.5,2.5 0 0 1 1790.92,187 L1134.6,187 A2.5,2.5 0 0 1 1132.1,184.5 L1132.1,8.5 A2.5,2.5 0 0 1 1134.6,6" fill="none" style="stroke:#000000;stroke-width:1.5;"/><line style="stroke:#000000;stroke-width:1.5;" x1="1132.1" x2="1242.9701" y1="28.2969" y2="28.2969"/><text fill="#000000" font-family="sans-serif" font-size="14" font-weight="bold" lengthAdjust="spacing" textLength="97.8701" x="1136.1" y="20.9951">Pagamentos</text></g><!--cluster Produtos--><g class="cluster" data-entity="Produtos" data-source-line="62" data-uid="ent0021" id="cluster_Produtos"><path d="M1467.65,771 L1540.065,771 A3.75,3.75 0 0 1 1542.565,773.5 L1549.565,793.2969 L2560.02,793.2969 A2.5,2.5 0 0 1 2562.52,795.7969 L2562.52,1013.5 A2.5,2.5 0 0 1 2560.02,1016 L1467.65,1016 A2.5,2.5 0 0 1 1465.15,1013.5 L1465.15,773.5 A2.5,2.5 0 0 1 1467.65,771" fill="none" style="stroke:#000000;stroke-width:1.5;"/><line style="stroke:#000000;stroke-width:1.5;" x1="1465.15" x2="1549.565" y1="793.2969" y2="793.2969"/><text fill="#000000" font-family="sans-serif" font-size="14" font-weight="bold" lengthAdjust="spacing" textLength="71.415" x="1469.15" y="785.9951">Produtos</text></g><!--cluster Vendedores--><g class="cluster" data-entity="Vendedores" data-source-line="87" data-uid="ent0030" id="cluster_Vendedores"><path d="M1495.62,1040 L1590.8055,1040 A3.75,3.75 0 0 1 1593.3055,1042.5 L1600.3055,1062.2969 L2124.12,1062.2969 A2.5,2.5 0 0 1 2126.62,1064.7969 L2126.62,1202.5 A2.5,2.5 0 0 1 2124.12,1205 L1495.62,1205 A2.5,2.5 0 0 1 1493.12,1202.5 L1493.12,1042.5 A2.5,2.5 0 0 1 1495.62,1040" fill="none" style="stroke:#000000;stroke-width:1.5;"/><line style="stroke:#000000;stroke-width:1.5;" x1="1493.12" x2="1600.3055" y1="1062.2969" y2="1062.2969"/><text fill="#000000" font-family="sans-serif" font-size="14" font-weight="bold" lengthAdjust="spacing" textLength="94.1855" x="1497.12" y="1054.9951">Vendedores</text></g><!--cluster Feedback--><g class="cluster" data-entity="Feedback" data-source-line="99" data-uid="ent0035" id="cluster_Feedback"><path d="M1107.55,211 L1184.2033,211 A3.75,3.75 0 0 1 1186.7033,213.5 L1193.7033,233.2969 L1783.61,233.2969 A2.5,2.5 0 0 1 1786.11,235.7969 L1786.11,421.5 A2.5,2.5 0 0 1 1783.61,424 L1107.55,424 A2.5,2.5 0 0 1 1105.05,421.5 L1105.05,213.5 A2.5,2.5 0 0 1 1107.55,211" fill="none" style="stroke:#000000;stroke-width:1.5;"/><line style="stroke:#000000;stroke-width:1.5;" x1="1105.05" x2="1193.7033" y1="233.2969" y2="233.2969"/><text fill="#000000" font-family="sans-serif" font-size="14" font-weight="bold" lengthAdjust="spacing" textLength="75.6533" x="1109.05" y="225.9951">Feedback</text></g><!--cluster Localiza??o--><g class="cluster" data-entity="Localiza&#231;&#227;o" data-source-line="114" data-uid="ent0040" id="cluster_Localiza&#231;&#227;o"><path d="M8.5,568 L100.3428,568 A3.75,3.75 0 0 1 102.8428,570.5 L109.8428,590.2969 L685.27,590.2969 A2.5,2.5 0 0 1 687.77,592.7969 L687.77,746.5 A2.5,2.5 0 0 1 685.27,749 L8.5,749 A2.5,2.5 0 0 1 6,746.5 L6,570.5 A2.5,2.5 0 0 1 8.5,568" fill="none" style="stroke:#000000;stroke-width:1.5;"/><line style="stroke:#000000;stroke-width:1.5;" x1="6" x2="109.8428" y1="590.2969" y2="590.2969"/><text fill="#000000" font-family="sans-serif" font-size="14" font-weight="bold" lengthAdjust="spacing" textLength="90.8428" x="10" y="582.9951">Localiza&#231;&#227;o</text></g><!--class customers--><g class="entity" data-entity="customers" data-source-line="8" data-uid="ent0003" id="entity_customers"><rect fill="#F1F1F1" height="129.4844" rx="2.5" ry="2.5" style="stroke:#181818;stroke-width:0.5;" width="262.5713" x="404.67" y="278.26"/><ellipse cx="494.0567" cy="294.26" fill="#ADD1B2" rx="11" ry="11" style="stroke:#181818;stroke-width:1;"/><path d="M498.1661,300.26 L490.4473,300.26 L490.4473,287.8694 L498.1661,287.8694 L498.1661,290.0256 L492.9005,290.0256 L492.9005,292.6975 L497.6661,292.6975 L497.6661,294.8538 L492.9005,294.8538 L492.9005,298.1038 L498.1661,298.1038 L498.1661,300.26 Z " fill="#000000"/><text fill="#000000" font-family="sans-serif" font-size="14" lengthAdjust="spacing" textLength="75.2979" x="514.5567" y="299.1067">Customers</text><line style="stroke:#181818;stroke-width:0.5;" x1="405.67" x2="666.2413" y1="310.26" y2="310.26"/><ellipse cx="415.67" cy="323.9084" fill="#000000" rx="3" ry="3" style="stroke:#000000;stroke-width:1;"/><text fill="#000000" font-family="sans-serif" font-size="14" lengthAdjust="spacing" textLength="229.6191" x="424.67" y="327.2551">customer_unique_id : UUID {PK}</text><text fill="#000000" font-family="sans-serif" font-size="14" lengthAdjust="spacing" textLength="134.7227" x="424.67" y="343.552">customer_id : UUID</text><text fill="#000000" font-family="sans-serif" font-size="14" lengthAdjust="spacing" textLength="236.5713" x="424.67" y="359.8489">customer_zip_code_prefix : String</text><text fill="#000000" font-family="sans-serif" font-size="14" lengthAdjust="spacing" textLength="153.6855" x="424.67" y="376.1457">customer_city : String</text><text fill="#000000" font-family="sans-serif" font-size="14" lengthAdjust="spacing" textLength="163.7891" x="424.67" y="392.4426">customer_state : String</text><line style="stroke:#181818;stroke-width:0.5;" x1="405.67" x2="666.2413" y1="399.7444" y2="399.7444"/></g><g class="entity" data-entity="GMN4" data-source-line="16" data-uid="ent0005" id="entity_GMN4"><path d="M764.5,330.43 L764.5,339 L667.62,343 L764.5,347 L764.5,355.5628 A0,0 0 0 0 764.5,355.5628 L1028.3296,355.5628 A0,0 0 0 0 1028.3296,355.5628 L1028.3296,340.43 L1018.3296,330.43 L764.5,330.43 A0,0 0 0 0 764.5,330.43" fill="#FEFFDD" style="stroke:#181818;stroke-width:0.5;"/><path d="M1018.3296,330.43 L1018.3296,340.43 L1028.3296,340.43 L1018.3296,330.43" fill="#FEFFDD" style="stroke:#181818;stroke-width:0.5;"/><text fill="#000000" font-family="sans-serif" font-size="13" lengthAdjust="spacing" textLength="242.8296" x="770.5" y="347.4969">Ficheiro: olist_customers_dataset.csv</text></g><!--class orders--><g class="entity" data-entity="orders" data-source-line="21" data-uid="ent0008" id="entity_orders"><rect fill="#F1F1F1" height="178.375" rx="2.5" ry="2.5" style="stroke:#181818;stroke-width:0.5;" width="329.2764" x="731.77" y="482.81"/><ellipse cx="868.4956" cy="498.81" fill="#ADD1B2" rx="11" ry="11" style="stroke:#181818;stroke-width:1;"/><path d="M872.605,504.81 L864.8862,504.81 L864.8862,492.4194 L872.605,492.4194 L872.605,494.5756 L867.3393,494.5756 L867.3393,497.2475 L872.105,497.2475 L872.105,499.4037 L867.3393,499.4037 L867.3393,502.6537 L872.605,502.6537 L872.605,504.81 Z " fill="#000000"/><text fill="#000000" font-family="sans-serif" font-size="14" lengthAdjust="spacing" textLength="47.3252" x="888.9956" y="503.6567">Orders</text><line style="stroke:#181818;stroke-width:0.5;" x1="732.77" x2="1060.0464" y1="514.81" y2="514.81"/><ellipse cx="742.77" cy="528.4584" fill="#000000" rx="3" ry="3" style="stroke:#000000;stroke-width:1;"/><text fill="#000000" font-family="sans-serif" font-size="14" lengthAdjust="spacing" textLength="146.2617" x="751.77" y="531.8051">order_id : UUID {PK}</text><text fill="#000000" font-family="sans-serif" font-size="14" lengthAdjust="spacing" textLength="174.2207" x="751.77" y="548.102">customer_id : UUID {FK}</text><text fill="#000000" font-family="sans-serif" font-size="14" lengthAdjust="spacing" textLength="142.9941" x="751.77" y="564.3989">order_status : String</text><text fill="#000000" font-family="sans-serif" font-size="14" lengthAdjust="spacing" textLength="273.4375" x="751.77" y="580.6957">order_purchase_timestamp : DateTime</text><text fill="#000000" font-family="sans-serif" font-size="14" lengthAdjust="spacing" textLength="213.876" x="751.77" y="596.9926">order_approved_at : DateTime</text><text fill="#000000" font-family="sans-serif" font-size="14" lengthAdjust="spacing" textLength="283.3975" x="751.77" y="613.2895">order_delivered_carrier_date : DateTime</text><text fill="#000000" font-family="sans-serif" font-size="14" lengthAdjust="spacing" textLength="303.2764" x="751.77" y="629.5864">order_delivered_customer_date : DateTime</text><text fill="#000000" font-family="sans-serif" font-size="14" lengthAdjust="spacing" textLength="298.6279" x="751.77" y="645.8832">order_estimated_delivery_date : DateTime</text><line style="stroke:#181818;stroke-width:0.5;" x1="732.77" x2="1060.0464" y1="653.185" y2="653.185"/></g><g class="entity" data-entity="GMN9" data-source-line="32" data-uid="ent0010" id="entity_GMN9"><path d="M1149.53,705.43 L1149.53,730.5628 L1387.0359,730.5628 L1387.0359,715.43 L1377.0359,705.43 L1149.53,705.43" fill="#FEFFDD" style="stroke:#181818;stroke-width:0.5;"/><path d="M1377.0359,705.43 L1377.0359,715.43 L1387.0359,715.43 L1377.0359,705.43" fill="#FEFFDD" style="stroke:#181818;stroke-width:1;"/><text fill="#000000" font-family="sans-serif" font-size="13" lengthAdjust="spacing" textLength="216.5059" x="1155.53" y="722.4969">Ficheiro: olist_orders_dataset.csv</text></g><!--class order_items--><g class="entity" data-entity="order_items" data-source-line="35" data-uid="ent0012" id="entity_order_items"><rect fill="#F1F1F1" height="162.0781" rx="2.5" ry="2.5" style="stroke:#181818;stroke-width:0.5;" width="243.6152" x="1146.47" y="482.96"/><ellipse cx="1222.2054" cy="498.96" fill="#ADD1B2" rx="11" ry="11" style="stroke:#181818;stroke-width:1;"/><path d="M1226.3147,504.96 L1218.596,504.96 L1218.596,492.5694 L1226.3147,492.5694 L1226.3147,494.7256 L1221.0491,494.7256 L1221.0491,497.3975 L1225.8147,497.3975 L1225.8147,499.5538 L1221.0491,499.5538 L1221.0491,502.8038 L1226.3147,502.8038 L1226.3147,504.96 Z " fill="#000000"/><text fill="#000000" font-family="sans-serif" font-size="14" lengthAdjust="spacing" textLength="83.6445" x="1242.7054" y="503.8067">Order Items</text><line style="stroke:#181818;stroke-width:0.5;" x1="1147.47" x2="1389.0852" y1="514.96" y2="514.96"/><ellipse cx="1157.47" cy="528.6084" fill="#000000" rx="3" ry="3" style="stroke:#000000;stroke-width:1;"/><text fill="#000000" font-family="sans-serif" font-size="14" lengthAdjust="spacing" textLength="172.3955" x="1166.47" y="531.9551">order_id : UUID {FK, PK}</text><ellipse cx="1157.47" cy="544.9053" fill="#000000" rx="3" ry="3" style="stroke:#000000;stroke-width:1;"/><text fill="#000000" font-family="sans-serif" font-size="14" lengthAdjust="spacing" textLength="167.9795" x="1166.47" y="548.252">order_item_id : Int {PK}</text><text fill="#000000" font-family="sans-serif" font-size="14" lengthAdjust="spacing" textLength="162.4492" x="1166.47" y="564.5489">product_id : UUID {FK}</text><text fill="#000000" font-family="sans-serif" font-size="14" lengthAdjust="spacing" textLength="146.3506" x="1166.47" y="580.8457">seller_id : UUID {FK}</text><text fill="#000000" font-family="sans-serif" font-size="14" lengthAdjust="spacing" textLength="217.6152" x="1166.47" y="597.1426">shipping_limit_date : DateTime</text><text fill="#000000" font-family="sans-serif" font-size="14" lengthAdjust="spacing" textLength="83.0361" x="1166.47" y="613.4395">price : Float</text><text fill="#000000" font-family="sans-serif" font-size="14" lengthAdjust="spacing" textLength="139.8701" x="1166.47" y="629.7364">freight_value : Float</text><line style="stroke:#181818;stroke-width:0.5;" x1="1147.47" x2="1389.0852" y1="637.0381" y2="637.0381"/></g><g class="entity" data-entity="GMN13" data-source-line="45" data-uid="ent0014" id="entity_GMN13"><path d="M1489.78,551.43 L1489.78,560 L1390.55,564 L1489.78,568 L1489.78,576.5628 A0,0 0 0 0 1489.78,576.5628 L1763.1565,576.5628 A0,0 0 0 0 1763.1565,576.5628 L1763.1565,561.43 L1753.1565,551.43 L1489.78,551.43 A0,0 0 0 0 1489.78,551.43" fill="#FEFFDD" style="stroke:#181818;stroke-width:0.5;"/><path d="M1753.1565,551.43 L1753.1565,561.43 L1763.1565,561.43 L1753.1565,551.43" fill="#FEFFDD" style="stroke:#181818;stroke-width:0.5;"/><text fill="#000000" font-family="sans-serif" font-size="13" lengthAdjust="spacing" textLength="252.3765" x="1495.78" y="568.4969">Ficheiro: olist_order_items_dataset.csv</text></g><!--class payments--><g class="entity" data-entity="payments" data-source-line="50" data-uid="ent0017" id="entity_payments"><rect fill="#F1F1F1" height="129.4844" rx="2.5" ry="2.5" style="stroke:#181818;stroke-width:0.5;" width="240.3613" x="1148.1" y="41.26"/><ellipse cx="1229.4237" cy="57.26" fill="#ADD1B2" rx="11" ry="11" style="stroke:#181818;stroke-width:1;"/><path d="M1233.5331,63.26 L1225.8144,63.26 L1225.8144,50.8694 L1233.5331,50.8694 L1233.5331,53.0256 L1228.2675,53.0256 L1228.2675,55.6975 L1233.0331,55.6975 L1233.0331,57.8537 L1228.2675,57.8537 L1228.2675,61.1037 L1233.5331,61.1037 L1233.5331,63.26 Z " fill="#000000"/><text fill="#000000" font-family="sans-serif" font-size="14" lengthAdjust="spacing" textLength="69.2139" x="1249.9237" y="62.1067">Payments</text><line style="stroke:#181818;stroke-width:0.5;" x1="1149.1" x2="1387.4613" y1="73.26" y2="73.26"/><ellipse cx="1159.1" cy="86.9084" fill="#000000" rx="3" ry="3" style="stroke:#000000;stroke-width:1;"/><text fill="#000000" font-family="sans-serif" font-size="14" lengthAdjust="spacing" textLength="172.3955" x="1168.1" y="90.2551">order_id : UUID {FK, PK}</text><ellipse cx="1159.1" cy="103.2053" fill="#000000" rx="3" ry="3" style="stroke:#000000;stroke-width:1;"/><text fill="#000000" font-family="sans-serif" font-size="14" lengthAdjust="spacing" textLength="214.3613" x="1168.1" y="106.552">payment_sequential : Int {PK}</text><text fill="#000000" font-family="sans-serif" font-size="14" lengthAdjust="spacing" textLength="156.0371" x="1168.1" y="122.8489">payment_type : String</text><text fill="#000000" font-family="sans-serif" font-size="14" lengthAdjust="spacing" textLength="187.2842" x="1168.1" y="139.1457">payment_installments : Int</text><text fill="#000000" font-family="sans-serif" font-size="14" lengthAdjust="spacing" textLength="155.7979" x="1168.1" y="155.4426">payment_value : Float</text><line style="stroke:#181818;stroke-width:0.5;" x1="1149.1" x2="1387.4613" y1="162.7444" y2="162.7444"/></g><g class="entity" data-entity="GMN18" data-source-line="58" data-uid="ent0019" id="entity_GMN18"><path d="M1475.51,93.43 L1475.51,102 L1388.55,106 L1475.51,110 L1475.51,118.5628 A0,0 0 0 0 1475.51,118.5628 L1777.4255,118.5628 A0,0 0 0 0 1777.4255,118.5628 L1777.4255,103.43 L1767.4255,93.43 L1475.51,93.43 A0,0 0 0 0 1475.51,93.43" fill="#FEFFDD" style="stroke:#181818;stroke-width:0.5;"/><path d="M1767.4255,93.43 L1767.4255,103.43 L1777.4255,103.43 L1767.4255,93.43" fill="#FEFFDD" style="stroke:#181818;stroke-width:0.5;"/><text fill="#000000" font-family="sans-serif" font-size="13" lengthAdjust="spacing" textLength="280.9155" x="1481.51" y="110.4969">Ficheiro: olist_order_payments_dataset.csv</text></g><!--class products--><g class="entity" data-entity="products" data-source-line="63" data-uid="ent0022" id="entity_products"><rect fill="#F1F1F1" height="194.6719" rx="2.5" ry="2.5" style="stroke:#181818;stroke-width:0.5;" width="290.626" x="1481.15" y="805.66"/><ellipse cx="1591.711" cy="821.66" fill="#ADD1B2" rx="11" ry="11" style="stroke:#181818;stroke-width:1;"/><path d="M1595.8204,827.66 L1588.1017,827.66 L1588.1017,815.2694 L1595.8204,815.2694 L1595.8204,817.4256 L1590.5548,817.4256 L1590.5548,820.0975 L1595.3204,820.0975 L1595.3204,822.2538 L1590.5548,822.2538 L1590.5548,825.5038 L1595.8204,825.5038 L1595.8204,827.66 Z " fill="#000000"/><text fill="#000000" font-family="sans-serif" font-size="14" lengthAdjust="spacing" textLength="61.0039" x="1612.211" y="826.5067">Products</text><line style="stroke:#181818;stroke-width:0.5;" x1="1482.15" x2="1770.776" y1="837.66" y2="837.66"/><ellipse cx="1492.15" cy="851.3084" fill="#000000" rx="3" ry="3" style="stroke:#000000;stroke-width:1;"/><text fill="#000000" font-family="sans-serif" font-size="14" lengthAdjust="spacing" textLength="162.8389" x="1501.15" y="854.6551">product_id : UUID {PK}</text><text fill="#000000" font-family="sans-serif" font-size="14" lengthAdjust="spacing" textLength="264.626" x="1501.15" y="870.952">product_category_name : String {FK}</text><text fill="#000000" font-family="sans-serif" font-size="14" lengthAdjust="spacing" textLength="184.5908" x="1501.15" y="887.2489">product_name_length : Int</text><text fill="#000000" font-family="sans-serif" font-size="14" lengthAdjust="spacing" textLength="222.7285" x="1501.15" y="903.5457">product_description_length : Int</text><text fill="#000000" font-family="sans-serif" font-size="14" lengthAdjust="spacing" textLength="170.5977" x="1501.15" y="919.8426">product_photos_qty : Int</text><text fill="#000000" font-family="sans-serif" font-size="14" lengthAdjust="spacing" textLength="156.3516" x="1501.15" y="936.1395">product_weight_g : Int</text><text fill="#000000" font-family="sans-serif" font-size="14" lengthAdjust="spacing" textLength="166.2227" x="1501.15" y="952.4364">product_length_cm : Int</text><text fill="#000000" font-family="sans-serif" font-size="14" lengthAdjust="spacing" textLength="166.2227" x="1501.15" y="968.7332">product_height_cm : Int</text><text fill="#000000" font-family="sans-serif" font-size="14" lengthAdjust="spacing" textLength="160.1865" x="1501.15" y="985.0301">product_width_cm : Int</text><line style="stroke:#181818;stroke-width:0.5;" x1="1482.15" x2="1770.776" y1="992.3319" y2="992.3319"/></g><g class="entity" data-entity="GMN23" data-source-line="75" data-uid="ent0024" id="entity_GMN23"><path d="M1865.2,960.43 L1865.2,969 L1772.11,973 L1865.2,977 L1865.2,985.5628 A0,0 0 0 0 1865.2,985.5628 L2118.0989,985.5628 A0,0 0 0 0 2118.0989,985.5628 L2118.0989,970.43 L2108.0989,960.43 L1865.2,960.43 A0,0 0 0 0 1865.2,960.43" fill="#FEFFDD" style="stroke:#181818;stroke-width:0.5;"/><path d="M2108.0989,960.43 L2108.0989,970.43 L2118.0989,970.43 L2108.0989,960.43" fill="#FEFFDD" style="stroke:#181818;stroke-width:0.5;"/><text fill="#000000" font-family="sans-serif" font-size="13" lengthAdjust="spacing" textLength="231.8989" x="1871.2" y="977.4969">Ficheiro: olist_products_dataset.csv</text></g><!--class cat_translation--><g class="entity" data-entity="cat_translation" data-source-line="78" data-uid="ent0026" id="entity_cat_translation"><rect fill="#F1F1F1" height="80.5938" rx="2.5" ry="2.5" style="stroke:#181818;stroke-width:0.5;" width="308.4473" x="1837.42" y="819.7"/><ellipse cx="1914.0235" cy="835.7" fill="#ADD1B2" rx="11" ry="11" style="stroke:#181818;stroke-width:1;"/><path d="M1918.1329,841.7 L1910.4141,841.7 L1910.4141,829.3094 L1918.1329,829.3094 L1918.1329,831.4656 L1912.8673,831.4656 L1912.8673,834.1375 L1917.6329,834.1375 L1917.6329,836.2938 L1912.8673,836.2938 L1912.8673,839.5438 L1918.1329,839.5438 L1918.1329,841.7 Z " fill="#000000"/><text fill="#000000" font-family="sans-serif" font-size="14" lengthAdjust="spacing" textLength="146.7402" x="1934.5235" y="840.5467">Category Translation</text><line style="stroke:#181818;stroke-width:0.5;" x1="1838.42" x2="2144.8673" y1="851.7" y2="851.7"/><ellipse cx="1848.42" cy="865.3484" fill="#000000" rx="3" ry="3" style="stroke:#000000;stroke-width:1;"/><text fill="#000000" font-family="sans-serif" font-size="14" lengthAdjust="spacing" textLength="265.0156" x="1857.42" y="868.6951">product_category_name : String {PK}</text><text fill="#000000" font-family="sans-serif" font-size="14" lengthAdjust="spacing" textLength="282.4473" x="1857.42" y="884.992">product_category_name_english : String</text><line style="stroke:#181818;stroke-width:0.5;" x1="1838.42" x2="2144.8673" y1="892.2938" y2="892.2938"/></g><g class="entity" data-entity="GMN27" data-source-line="83" data-uid="ent0028" id="entity_GMN27"><path d="M2205.87,847.43 L2205.87,856 L2146.12,860 L2205.87,864 L2205.87,872.5628 A0,0 0 0 0 2205.87,872.5628 L2546.5189,872.5628 A0,0 0 0 0 2546.5189,872.5628 L2546.5189,857.43 L2536.5189,847.43 L2205.87,847.43 A0,0 0 0 0 2205.87,847.43" fill="#FEFFDD" style="stroke:#181818;stroke-width:0.5;"/><path d="M2536.5189,847.43 L2536.5189,857.43 L2546.5189,857.43 L2536.5189,847.43" fill="#FEFFDD" style="stroke:#181818;stroke-width:0.5;"/><text fill="#000000" font-family="sans-serif" font-size="13" lengthAdjust="spacing" textLength="319.6489" x="2211.87" y="864.4969">Ficheiro: product_category_name_translation.csv</text></g><!--class sellers--><g class="entity" data-entity="sellers" data-source-line="88" data-uid="ent0031" id="entity_sellers"><rect fill="#F1F1F1" height="113.1875" rx="2.5" ry="2.5" style="stroke:#181818;stroke-width:0.5;" width="234.7012" x="1509.12" y="1075.41"/><ellipse cx="1598.7494" cy="1091.41" fill="#ADD1B2" rx="11" ry="11" style="stroke:#181818;stroke-width:1;"/><path d="M1602.8588,1097.41 L1595.14,1097.41 L1595.14,1085.0194 L1602.8588,1085.0194 L1602.8588,1087.1756 L1597.5931,1087.1756 L1597.5931,1089.8475 L1602.3588,1089.8475 L1602.3588,1092.0038 L1597.5931,1092.0038 L1597.5931,1095.2538 L1602.8588,1095.2538 L1602.8588,1097.41 Z " fill="#000000"/><text fill="#000000" font-family="sans-serif" font-size="14" lengthAdjust="spacing" textLength="46.9424" x="1619.2494" y="1096.2567">Sellers</text><line style="stroke:#181818;stroke-width:0.5;" x1="1510.12" x2="1742.8212" y1="1107.41" y2="1107.41"/><ellipse cx="1520.12" cy="1121.0584" fill="#000000" rx="3" ry="3" style="stroke:#000000;stroke-width:1;"/><text fill="#000000" font-family="sans-serif" font-size="14" lengthAdjust="spacing" textLength="146.7402" x="1529.12" y="1124.4051">seller_id : UUID {PK}</text><text fill="#000000" font-family="sans-serif" font-size="14" lengthAdjust="spacing" textLength="208.7012" x="1529.12" y="1140.702">seller_zip_code_prefix : String</text><text fill="#000000" font-family="sans-serif" font-size="14" lengthAdjust="spacing" textLength="125.8154" x="1529.12" y="1156.9989">seller_city : String</text><text fill="#000000" font-family="sans-serif" font-size="14" lengthAdjust="spacing" textLength="135.9189" x="1529.12" y="1173.2957">seller_state : String</text><line style="stroke:#181818;stroke-width:0.5;" x1="1510.12" x2="1742.8212" y1="1180.5975" y2="1180.5975"/></g><g class="entity" data-entity="GMN32" data-source-line="95" data-uid="ent0033" id="entity_GMN32"><path d="M1872.67,1119.43 L1872.67,1128 L1744.27,1132 L1872.67,1136 L1872.67,1144.5628 A0,0 0 0 0 1872.67,1144.5628 L2110.6202,1144.5628 A0,0 0 0 0 2110.6202,1144.5628 L2110.6202,1129.43 L2100.6202,1119.43 L1872.67,1119.43 A0,0 0 0 0 1872.67,1119.43" fill="#FEFFDD" style="stroke:#181818;stroke-width:0.5;"/><path d="M2100.6202,1119.43 L2100.6202,1129.43 L2110.6202,1129.43 L2100.6202,1119.43" fill="#FEFFDD" style="stroke:#181818;stroke-width:0.5;"/><text fill="#000000" font-family="sans-serif" font-size="13" lengthAdjust="spacing" textLength="216.9502" x="1878.67" y="1136.4969">Ficheiro: olist_sellers_dataset.csv</text></g><!--class reviews--><g class="entity" data-entity="reviews" data-source-line="100" data-uid="ent0036" id="entity_reviews"><rect fill="#F1F1F1" height="162.0781" rx="2.5" ry="2.5" style="stroke:#181818;stroke-width:0.5;" width="294.4609" x="1121.05" y="245.96"/><ellipse cx="1235.0939" cy="261.96" fill="#ADD1B2" rx="11" ry="11" style="stroke:#181818;stroke-width:1;"/><path d="M1239.2033,267.96 L1231.4846,267.96 L1231.4846,255.5694 L1239.2033,255.5694 L1239.2033,257.7256 L1233.9377,257.7256 L1233.9377,260.3975 L1238.7033,260.3975 L1238.7033,262.5538 L1233.9377,262.5538 L1233.9377,265.8038 L1239.2033,265.8038 L1239.2033,267.96 Z " fill="#000000"/><text fill="#000000" font-family="sans-serif" font-size="14" lengthAdjust="spacing" textLength="57.873" x="1255.5939" y="266.8067">Reviews</text><line style="stroke:#181818;stroke-width:0.5;" x1="1122.05" x2="1414.5109" y1="277.96" y2="277.96"/><ellipse cx="1132.05" cy="291.6084" fill="#000000" rx="3" ry="3" style="stroke:#000000;stroke-width:1;"/><text fill="#000000" font-family="sans-serif" font-size="14" lengthAdjust="spacing" textLength="155.292" x="1141.05" y="294.9551">review_id : UUID {PK}</text><text fill="#000000" font-family="sans-serif" font-size="14" lengthAdjust="spacing" textLength="145.8721" x="1141.05" y="311.252">order_id : UUID {FK}</text><text fill="#000000" font-family="sans-serif" font-size="14" lengthAdjust="spacing" textLength="123.6416" x="1141.05" y="327.5489">review_score : Int</text><text fill="#000000" font-family="sans-serif" font-size="14" lengthAdjust="spacing" textLength="209.8906" x="1141.05" y="343.8457">review_comment_title : String</text><text fill="#000000" font-family="sans-serif" font-size="14" lengthAdjust="spacing" textLength="245.4375" x="1141.05" y="360.1426">review_comment_message : String</text><text fill="#000000" font-family="sans-serif" font-size="14" lengthAdjust="spacing" textLength="231.4102" x="1141.05" y="376.4395">review_creation_date : DateTime</text><text fill="#000000" font-family="sans-serif" font-size="14" lengthAdjust="spacing" textLength="268.4609" x="1141.05" y="392.7364">review_answer_timestamp : DateTime</text><line style="stroke:#181818;stroke-width:0.5;" x1="1122.05" x2="1414.5109" y1="400.0381" y2="400.0381"/></g><g class="entity" data-entity="GMN37" data-source-line="110" data-uid="ent0038" id="entity_GMN37"><path d="M1482.82,314.43 L1482.82,323 L1415.78,327 L1482.82,331 L1482.82,339.5628 A0,0 0 0 0 1482.82,339.5628 L1770.1042,339.5628 A0,0 0 0 0 1770.1042,339.5628 L1770.1042,324.43 L1760.1042,314.43 L1482.82,314.43 A0,0 0 0 0 1482.82,314.43" fill="#FEFFDD" style="stroke:#181818;stroke-width:0.5;"/><path d="M1760.1042,314.43 L1760.1042,324.43 L1770.1042,324.43 L1760.1042,314.43" fill="#FEFFDD" style="stroke:#181818;stroke-width:0.5;"/><text fill="#000000" font-family="sans-serif" font-size="13" lengthAdjust="spacing" textLength="266.2842" x="1488.82" y="331.4969">Ficheiro: olist_order_reviews_dataset.csv</text></g><!--class geolocation--><g class="entity" data-entity="geolocation" data-source-line="115" data-uid="ent0041" id="entity_geolocation"><rect fill="#F1F1F1" height="129.4844" rx="2.5" ry="2.5" style="stroke:#181818;stroke-width:0.5;" width="318.1475" x="22" y="603.26"/><ellipse cx="135.0356" cy="619.26" fill="#ADD1B2" rx="11" ry="11" style="stroke:#181818;stroke-width:1;"/><path d="M139.145,625.26 L131.4263,625.26 L131.4263,612.8694 L139.145,612.8694 L139.145,615.0256 L133.8794,615.0256 L133.8794,617.6975 L138.645,617.6975 L138.645,619.8538 L133.8794,619.8538 L133.8794,623.1038 L139.145,623.1038 L139.145,625.26 Z " fill="#000000"/><text fill="#000000" font-family="sans-serif" font-size="14" lengthAdjust="spacing" textLength="83.5762" x="155.5356" y="624.1067">Geolocation</text><line style="stroke:#181818;stroke-width:0.5;" x1="23" x2="339.1475" y1="635.26" y2="635.26"/><ellipse cx="33" cy="648.9084" fill="#000000" rx="3" ry="3" style="stroke:#000000;stroke-width:1;"/><text fill="#000000" font-family="sans-serif" font-size="14" lengthAdjust="spacing" textLength="292.1475" x="42" y="652.2551">geolocation_zip_code_prefix : String {PK}</text><text fill="#000000" font-family="sans-serif" font-size="14" lengthAdjust="spacing" textLength="154.7656" x="42" y="668.552">geolocation_lat : Float</text><text fill="#000000" font-family="sans-serif" font-size="14" lengthAdjust="spacing" textLength="158.457" x="42" y="684.8489">geolocation_lng : Float</text><text fill="#000000" font-family="sans-serif" font-size="14" lengthAdjust="spacing" textLength="169.374" x="42" y="701.1457">geolocation_city : String</text><text fill="#000000" font-family="sans-serif" font-size="14" lengthAdjust="spacing" textLength="179.4775" x="42" y="717.4426">geolocation_state : String</text><line style="stroke:#181818;stroke-width:0.5;" x1="23" x2="339.1475" y1="724.7444" y2="724.7444"/></g><g class="entity" data-entity="GMN42" data-source-line="123" data-uid="ent0043" id="entity_GMN42"><path d="M400.15,655.43 L400.15,664 L340.61,668 L400.15,672 L400.15,680.5628 A0,0 0 0 0 400.15,680.5628 L671.7745,680.5628 A0,0 0 0 0 671.7745,680.5628 L671.7745,665.43 L661.7745,655.43 L400.15,655.43 A0,0 0 0 0 400.15,655.43" fill="#FEFFDD" style="stroke:#181818;stroke-width:0.5;"/><path d="M661.7745,655.43 L661.7745,665.43 L671.7745,665.43 L661.7745,655.43" fill="#FEFFDD" style="stroke:#181818;stroke-width:0.5;"/><text fill="#000000" font-family="sans-serif" font-size="13" lengthAdjust="spacing" textLength="250.6245" x="406.15" y="672.4969">Ficheiro: olist_geolocation_dataset.csv</text></g><!--link orders to GMN9--><g class="link" data-entity-1="orders" data-entity-2="GMN9" data-source-line="32" data-uid="lnk11" id="link_orders_GMN9"><path d="M1061.52,653.11 C1160.98,653.11 1268.52,653.11 1268.52,653.11 C1268.52,653.11 1268.52,686.27 1268.52,705.18" fill="none" id="orders-GMN9" style="stroke:#181818;stroke-width:1;stroke-dasharray:7.0,7.0;"/></g><!--link customers to orders--><g class="link" data-entity-1="customers" data-entity-2="orders" data-source-line="128" data-uid="lnk45" id="link_customers_orders"><path codeLine="128" d="M667.55,372.96 C711.04,372.96 748.52,372.96 748.52,372.96 C748.52,372.96 748.52,429.55 748.52,482.38" fill="none" id="customers-orders" style="stroke:#181818;stroke-width:1;"/><text fill="#000000" font-family="sans-serif" font-size="13" lengthAdjust="spacing" textLength="41.7485" x="706.52" y="400.2469">places</text><text fill="#000000" font-family="sans-serif" font-size="13" lengthAdjust="spacing" textLength="8.271" x="675.3969" y="387.1963">1</text><text fill="#000000" font-family="sans-serif" font-size="13" lengthAdjust="spacing" textLength="23.0356" x="712.8202" y="471.7131">0..*</text></g><!--link orders to order_items--><g class="link" data-entity-1="orders" data-entity-2="order_items" data-source-line="129" data-uid="lnk46" id="link_orders_order_items"><path codeLine="129" d="M1061.41,564 C1089.85,564 1118.95,564 1146.01,564" fill="none" id="orders-order_items" style="stroke:#181818;stroke-width:1;"/><text fill="#000000" font-family="sans-serif" font-size="13" lengthAdjust="spacing" textLength="55.0278" x="1047.71" y="560.0669">contains</text><text fill="#000000" font-family="sans-serif" font-size="13" lengthAdjust="spacing" textLength="8.271" x="1069.074" y="576.0474">1</text><text fill="#000000" font-family="sans-serif" font-size="13" lengthAdjust="spacing" textLength="23.0356" x="1115.2776" y="576.5044">1..*</text></g><!--link order_items to products--><g class="link" data-entity-1="order_items" data-entity-2="products" data-source-line="130" data-uid="lnk47" id="link_order_items_products"><path codeLine="130" d="M1390.56,599.39 C1494.34,599.39 1626.52,599.39 1626.52,599.39 C1626.52,599.39 1626.52,716.51 1626.52,805.26" fill="none" id="order_items-products" style="stroke:#181818;stroke-width:1;"/><text fill="#000000" font-family="sans-serif" font-size="13" lengthAdjust="spacing" textLength="53.8726" x="1557.48" y="612.4569">includes</text><text fill="#000000" font-family="sans-serif" font-size="13" lengthAdjust="spacing" textLength="8.271" x="1398.2636" y="614.0746">1</text><text fill="#000000" font-family="sans-serif" font-size="13" lengthAdjust="spacing" textLength="8.271" x="1618.2404" y="794.6035">1</text></g><!--link order_items to sellers--><g class="link" data-entity-1="order_items" data-entity-2="sellers" data-source-line="131" data-uid="lnk48" id="link_order_items_sellers"><path codeLine="131" d="M1390.55,622.21 C1398.57,622.21 1403.52,622.21 1403.52,622.21 C1403.52,622.21 1403.52,1113.14 1403.52,1113.14 C1403.52,1113.14 1455.2,1113.14 1508.79,1113.14" fill="none" id="order_items-sellers" style="stroke:#181818;stroke-width:1;"/><text fill="#000000" font-family="sans-serif" font-size="13" lengthAdjust="spacing" textLength="46.668" x="1356.52" y="926.8969">sold by</text><text fill="#000000" font-family="sans-serif" font-size="13" lengthAdjust="spacing" textLength="8.271" x="1398.253" y="638.2852">1</text><text fill="#000000" font-family="sans-serif" font-size="13" lengthAdjust="spacing" textLength="8.271" x="1493.0035" y="1124.4832">1</text></g><!--link orders to payments--><g class="link" data-entity-1="orders" data-entity-2="payments" data-source-line="132" data-uid="lnk49" id="link_orders_payments"><path codeLine="132" d="M1039.52,482.43 C1039.52,347.06 1039.52,106 1039.52,106 C1039.52,106 1092.76,106 1147.87,106" fill="none" id="orders-payments" style="stroke:#181818;stroke-width:1;"/><text fill="#000000" font-family="sans-serif" font-size="13" lengthAdjust="spacing" textLength="22.9785" x="1016.52" y="253.1069">has</text><text fill="#000000" font-family="sans-serif" font-size="13" lengthAdjust="spacing" textLength="8.271" x="1042.6163" y="471.7671">1</text><text fill="#000000" font-family="sans-serif" font-size="13" lengthAdjust="spacing" textLength="23.0356" x="1117.2449" y="118.5042">1..*</text></g><!--link orders to reviews--><g class="link" data-entity-1="orders" data-entity-2="reviews" data-source-line="133" data-uid="lnk50" id="link_orders_reviews"><path codeLine="133" d="M1050.52,482.51 C1050.52,436.65 1050.52,390.35 1050.52,390.35 C1050.52,390.35 1081.78,390.35 1120.62,390.35" fill="none" id="orders-reviews" style="stroke:#181818;stroke-width:1;"/><text fill="#000000" font-family="sans-serif" font-size="13" lengthAdjust="spacing" textLength="79.606" x="970.52" y="414.4469">reviewed by</text><text fill="#000000" font-family="sans-serif" font-size="13" lengthAdjust="spacing" textLength="24.8066" x="1063.7892" y="471.8535">0..1</text><text fill="#000000" font-family="sans-serif" font-size="13" lengthAdjust="spacing" textLength="23.0356" x="1089.9115" y="405.852">0..*</text></g><!--link products to cat_translation--><g class="link" data-entity-1="products" data-entity-2="cat_translation" data-source-line="134" data-uid="lnk51" id="link_products_cat_translation"><path codeLine="134" d="M1772.11,860 C1793.48,860 1815.55,860 1837.09,860" fill="none" id="products-cat_translation" style="stroke:#181818;stroke-width:1;"/><text fill="#000000" font-family="sans-serif" font-size="13" lengthAdjust="spacing" textLength="83.5288" x="1720.6" y="856.0669">translated to</text><text fill="#000000" font-family="sans-serif" font-size="13" lengthAdjust="spacing" textLength="8.271" x="1779.8332" y="870.2401">1</text><text fill="#000000" font-family="sans-serif" font-size="13" lengthAdjust="spacing" textLength="8.271" x="1820.9216" y="872.4572">1</text></g><!--link geolocation to customers--><g class="link" data-entity-1="geolocation" data-entity-2="customers" data-source-line="137" data-uid="lnk52" id="link_geolocation_customers"><path codeLine="137" d="M340.6,629.35 C435.09,629.35 536.52,629.35 536.52,629.35 C536.52,629.35 536.52,492.46 536.52,407.98" fill="none" id="geolocation-customers" style="stroke:#181818;stroke-width:1;"/><text fill="#000000" font-family="sans-serif" font-size="13" lengthAdjust="spacing" textLength="123.9189" x="412.52" y="629.6869">via zip_code_prefix</text><text fill="#000000" font-family="sans-serif" font-size="13" lengthAdjust="spacing" textLength="8.271" x="348.0159" y="640.0083">1</text><text fill="#000000" font-family="sans-serif" font-size="13" lengthAdjust="spacing" textLength="23.0356" x="512.3259" y="427.9814">0..*</text></g><!--link geolocation to sellers--><g class="link" data-entity-1="geolocation" data-entity-2="sellers" data-source-line="138" data-uid="lnk53" id="link_geolocation_sellers"><path codeLine="138" d="M181.52,733.12 C181.52,864.92 181.52,1150.86 181.52,1150.86 C181.52,1150.86 1164.29,1150.86 1508.83,1150.86" fill="none" id="geolocation-sellers" style="stroke:#181818;stroke-width:1;"/><text fill="#000000" font-family="sans-serif" font-size="13" lengthAdjust="spacing" textLength="123.9189" x="512.31" y="1163.9269">via zip_code_prefix</text><text fill="#000000" font-family="sans-serif" font-size="13" lengthAdjust="spacing" textLength="8.271" x="173.1675" y="752.6825">1</text><text fill="#000000" font-family="sans-serif" font-size="13" lengthAdjust="spacing" textLength="23.0356" x="1477.9616" y="1164.537">0..*</text></g><!--SRC=[bLV1Rjms4BtlLn2w93KImq617dnDieMH03NYf5U1eSOIOOfaIEww6oDVqqE_e5-G7-j8f2HA8jUgJ-AyD_JmpN26A-3U4QU8uNNZICKDCCULtDa7BZKrj2M2It0d3KGPrwW8aAe22vhyTXKP3PKFAoD8nztfJbF6PKr-lThjyFE1ra2Aju8Z2hOWJpk2VvwAzeDrgWM30BM43Ql0wluk1cDvaFpR0KfUaMlovSlDE_9q- -77o1jf8xw6ldDTCZnEgGtSyx-GT-SCnhfciYwwF6mTTJ37VIHIeTsBhEwdy_JOdhC6k57NH0bkNJcYPKKTjU0kcJq6TQf-fzsFIC8_qKfN0lvXga4zrN_6qlMMxOAHfts4U-Vkf0UxbiAZ-c1OWw6NZhU0r5OZynrgyndN2oxLsgWZL2LrUL85WX_188jHOtXdyKe_pn-ESzu1e-GjGjNWUaewfBBfzKscqaFvFAvJHcuSj57UIjwjpoPl_-4LYHDuCJbwserqynIZuDM1kLo6BGYHpxzjkDQOybBmbhkihDfmrW5xeQWRhVS6EjdA8nM7EPfLrYkGbzVZs-xABQrfYtghrNsvfQSEyChhiFX_iWUlqWAs8zoMYgJsWTNtrDNr6L0kyTO8uQFeTrbHjaau7EMCVWDbeuHTxQG4z3KL10oBMC14qQLgac4XrGgldyHCZGBDIt3WTfHIWAnTinGfC714CSDrDzFE4tMZy53bjxwzfmYFld3h3EmtBrcRmHlldiKVURLqJwOp29jCvm1kx3TlWzBaCqvjAsWdaX-t5CjpigMIcClIinajKISCjjam9ETHB4wStZpYFpyqeL9c_VAuwvkVBsFV26TLlEwDj-lE-Unx8l3Ihua0RdnBX1YJ1H6mRHTx3r1znSLIa4zmvF3e1J7-EnR4ctA29Bhc10PNop0FYsiH8APQtoov4ubkkM3XKyDsHydo3FIbaPrPWOSrz8XHPzykgJG4PSwqsS3ObeoFYb71lzEV__pyMoqpyZieWVXuN-jf7MScCcShSfwjs4Fqpx7vz9xXiZwBfsixPcmiyCWbgMwyvJbjNv1F83f1_mNRIOarznu5hIZE2F8IQmWxZgcuHDqx6s42Vxpyifj-UnHl2lBwDIckBYylYk5LVKqABIZ3Fh8Bbe7sPgA5HnnocPAEud0Fx02CBiKqEP7C9HE72lBaeJyXrofHaQ-dJ1JZWmQP-2wVM7YMsQc62uuy_mb-rp6iwBylnmJw34lqSgfOQ8wQpifw5zVjNDn9TDpqo2bPr6znnZU8ad7y3m00]--></g></svg>